<svg width="323" height="183" viewBox="0 0 323 183" fill="none" xmlns="http://www.w3.org/2000/svg">
<rect width="323" height="183" fill="url(#paint0_linear_444_11)"/>
<path d="M84.5696 102.318V82.8182H88.4474V85.2003H88.6229C88.7952 84.8187 89.0445 84.4309 89.3707 84.0369C89.7031 83.6368 90.134 83.3045 90.6634 83.0398C91.1989 82.7689 91.8636 82.6335 92.6577 82.6335C93.6918 82.6335 94.6458 82.9044 95.5199 83.446C96.3939 83.9815 97.0926 84.791 97.6158 85.8743C98.139 86.9515 98.4006 88.3026 98.4006 89.9276C98.4006 91.5095 98.1451 92.8452 97.6342 93.9347C97.1295 95.018 96.4401 95.8397 95.5661 96.3999C94.6982 96.9538 93.7256 97.2308 92.6484 97.2308C91.8852 97.2308 91.2358 97.1046 90.7003 96.8523C90.1709 96.5999 89.737 96.2829 89.3984 95.9013C89.0599 95.5135 88.8014 95.1226 88.6229 94.7287H88.5028V102.318H84.5696ZM88.4197 89.9091C88.4197 90.7524 88.5367 91.4879 88.7706 92.1158C89.0045 92.7436 89.343 93.233 89.7862 93.5838C90.2294 93.9285 90.768 94.1009 91.402 94.1009C92.0421 94.1009 92.5838 93.9254 93.027 93.5746C93.4702 93.2176 93.8056 92.7251 94.0334 92.0973C94.2673 91.4633 94.3842 90.7339 94.3842 89.9091C94.3842 89.0904 94.2704 88.3703 94.0426 87.7486C93.8149 87.1269 93.4794 86.6406 93.0362 86.2898C92.593 85.9389 92.0483 85.7635 91.402 85.7635C90.7618 85.7635 90.2202 85.9328 89.777 86.2713C89.34 86.6098 89.0045 87.09 88.7706 87.7116C88.5367 88.3333 88.4197 89.0658 88.4197 89.9091ZM110.117 90.9616V82.8182H114.05V97H110.274V94.424H110.126C109.806 95.255 109.274 95.9228 108.529 96.4276C107.79 96.9323 106.889 97.1847 105.824 97.1847C104.876 97.1847 104.042 96.9692 103.322 96.5384C102.602 96.1075 102.038 95.495 101.632 94.701C101.232 93.907 101.029 92.956 101.023 91.848V82.8182H104.956V91.1463C104.962 91.9834 105.187 92.6451 105.63 93.1314C106.073 93.6177 106.667 93.8608 107.412 93.8608C107.886 93.8608 108.329 93.7531 108.741 93.5376C109.154 93.3161 109.486 92.9898 109.739 92.5589C109.997 92.1281 110.123 91.5956 110.117 90.9616ZM117.123 97V94.6548L124.066 86.0589V85.9574H117.363V82.8182H128.802V85.3757L122.284 93.7592V93.8608H129.042V97H117.123ZM131.976 97V94.6548L138.919 86.0589V85.9574H132.216V82.8182H143.656V85.3757L137.137 93.7592V93.8608H143.896V97H131.976ZM150.837 78.0909V97H146.904V78.0909H150.837ZM160.451 97.277C158.992 97.277 157.736 96.9815 156.684 96.3906C155.637 95.7936 154.831 94.9503 154.265 93.8608C153.698 92.7652 153.415 91.4695 153.415 89.9737C153.415 88.5149 153.698 87.2346 154.265 86.1328C154.831 85.031 155.628 84.1723 156.656 83.5568C157.69 82.9413 158.903 82.6335 160.294 82.6335C161.229 82.6335 162.1 82.7843 162.907 83.0859C163.719 83.3814 164.427 83.8277 165.03 84.4247C165.64 85.0218 166.114 85.7727 166.452 86.6776C166.791 87.5762 166.96 88.6288 166.96 89.8352V90.9155H154.985V88.478H163.257C163.257 87.9117 163.134 87.41 162.888 86.973C162.642 86.536 162.3 86.1944 161.863 85.9482C161.432 85.6958 160.931 85.5696 160.358 85.5696C159.761 85.5696 159.232 85.7081 158.77 85.9851C158.315 86.2559 157.958 86.6222 157.699 87.0838C157.441 87.5393 157.308 88.0471 157.302 88.6072V90.9247C157.302 91.6264 157.431 92.2327 157.69 92.7436C157.955 93.2545 158.327 93.6484 158.807 93.9254C159.287 94.2024 159.857 94.3409 160.515 94.3409C160.952 94.3409 161.352 94.2794 161.716 94.1562C162.079 94.0331 162.39 93.8485 162.648 93.6023C162.907 93.3561 163.104 93.0545 163.239 92.6974L166.877 92.9375C166.692 93.8116 166.314 94.5748 165.741 95.2273C165.175 95.8736 164.442 96.3783 163.544 96.7415C162.651 97.0985 161.62 97.277 160.451 97.277ZM169.527 97V82.8182H173.275V85.3203H173.441C173.737 84.4893 174.229 83.8338 174.919 83.3537C175.608 82.8736 176.433 82.6335 177.393 82.6335C178.366 82.6335 179.194 82.8767 179.877 83.3629C180.56 83.843 181.016 84.4955 181.243 85.3203H181.391C181.68 84.5078 182.203 83.8584 182.961 83.3722C183.724 82.8797 184.626 82.6335 185.666 82.6335C186.989 82.6335 188.063 83.0552 188.888 83.8984C189.719 84.7356 190.135 85.9235 190.135 87.4624V97H186.211V88.2379C186.211 87.45 186.001 86.8591 185.583 86.4652C185.164 86.0713 184.641 85.8743 184.013 85.8743C183.299 85.8743 182.742 86.102 182.342 86.5575C181.942 87.0069 181.742 87.6009 181.742 88.3395V97H177.929V88.1548C177.929 87.4593 177.729 86.9053 177.328 86.4929C176.935 86.0805 176.414 85.8743 175.768 85.8743C175.331 85.8743 174.937 85.9851 174.586 86.2067C174.242 86.4221 173.968 86.7268 173.765 87.1207C173.561 87.5085 173.46 87.964 173.46 88.4872V97H169.527ZM195.162 102.318C194.663 102.318 194.196 102.278 193.759 102.198C193.328 102.124 192.971 102.029 192.688 101.912L193.574 98.9759C194.036 99.1174 194.451 99.1944 194.82 99.2067C195.196 99.219 195.519 99.1328 195.79 98.9482C196.067 98.7635 196.291 98.4496 196.464 98.0064L196.695 97.4062L191.607 82.8182H195.744L198.68 93.233H198.827L201.791 82.8182H205.955L200.443 98.5327C200.179 99.2959 199.818 99.9607 199.363 100.527C198.914 101.099 198.344 101.54 197.655 101.847C196.965 102.161 196.134 102.318 195.162 102.318ZM207.968 97V82.8182H211.901V97H207.968ZM209.944 80.9901C209.359 80.9901 208.857 80.7962 208.439 80.4084C208.027 80.0144 207.82 79.5436 207.82 78.9957C207.82 78.4541 208.027 77.9893 208.439 77.6016C208.857 77.2076 209.359 77.0107 209.944 77.0107C210.529 77.0107 211.027 77.2076 211.44 77.6016C211.858 77.9893 212.067 78.4541 212.067 78.9957C212.067 79.5436 211.858 80.0144 211.44 80.4084C211.027 80.7962 210.529 80.9901 209.944 80.9901ZM215.052 97V82.8182H218.801V85.3203H218.967C219.262 84.4893 219.755 83.8338 220.444 83.3537C221.133 82.8736 221.958 82.6335 222.919 82.6335C223.891 82.6335 224.719 82.8767 225.402 83.3629C226.085 83.843 226.541 84.4955 226.769 85.3203H226.916C227.206 84.5078 227.729 83.8584 228.486 83.3722C229.249 82.8797 230.151 82.6335 231.191 82.6335C232.515 82.6335 233.589 83.0552 234.414 83.8984C235.244 84.7356 235.66 85.9235 235.66 87.4624V97H231.736V88.2379C231.736 87.45 231.527 86.8591 231.108 86.4652C230.69 86.0713 230.166 85.8743 229.539 85.8743C228.825 85.8743 228.267 86.102 227.867 86.5575C227.467 87.0069 227.267 87.6009 227.267 88.3395V97H223.454V88.1548C223.454 87.4593 223.254 86.9053 222.854 86.4929C222.46 86.0805 221.94 85.8743 221.294 85.8743C220.856 85.8743 220.463 85.9851 220.112 86.2067C219.767 86.4221 219.493 86.7268 219.29 87.1207C219.087 87.5085 218.985 87.964 218.985 88.4872V97H215.052ZM242.811 97.2678C241.906 97.2678 241.1 97.1108 240.392 96.7969C239.684 96.4768 239.124 96.0059 238.711 95.3842C238.305 94.7564 238.102 93.9747 238.102 93.0391C238.102 92.2512 238.247 91.5895 238.536 91.054C238.825 90.5185 239.219 90.0876 239.718 89.7614C240.216 89.4351 240.783 89.1889 241.417 89.0227C242.057 88.8565 242.728 88.7396 243.43 88.6719C244.254 88.5857 244.919 88.5057 245.424 88.4318C245.929 88.3518 246.295 88.2348 246.523 88.081C246.75 87.9271 246.864 87.6993 246.864 87.3977V87.3423C246.864 86.7576 246.68 86.3052 246.31 85.9851C245.947 85.665 245.43 85.505 244.759 85.505C244.051 85.505 243.488 85.6619 243.069 85.9759C242.651 86.2836 242.374 86.6714 242.238 87.1392L238.601 86.8438C238.785 85.982 239.148 85.2372 239.69 84.6094C240.232 83.9754 240.93 83.4891 241.786 83.1506C242.648 82.8059 243.645 82.6335 244.778 82.6335C245.565 82.6335 246.319 82.7259 247.04 82.9105C247.766 83.0952 248.409 83.3814 248.969 83.7692C249.536 84.157 249.982 84.6555 250.308 85.2649C250.634 85.8681 250.797 86.5914 250.797 87.4347V97H247.067V95.0334H246.956C246.729 95.4766 246.424 95.8674 246.042 96.206C245.661 96.5384 245.202 96.8 244.667 96.9908C244.131 97.1754 243.513 97.2678 242.811 97.2678ZM243.937 94.5533C244.516 94.5533 245.027 94.4394 245.47 94.2116C245.913 93.9777 246.261 93.6638 246.513 93.2699C246.766 92.8759 246.892 92.4297 246.892 91.9311V90.4261C246.769 90.5062 246.599 90.58 246.384 90.6477C246.175 90.7093 245.938 90.7678 245.673 90.8232C245.408 90.8724 245.144 90.9186 244.879 90.9616C244.614 90.9986 244.374 91.0324 244.159 91.0632C243.697 91.1309 243.294 91.2386 242.949 91.3864C242.605 91.5341 242.337 91.7341 242.146 91.9865C241.955 92.2327 241.86 92.5405 241.86 92.9098C241.86 93.4453 242.054 93.8546 242.442 94.1378C242.836 94.4148 243.334 94.5533 243.937 94.5533ZM260.238 102.614C258.964 102.614 257.871 102.438 256.96 102.087C256.056 101.743 255.335 101.272 254.8 100.675C254.264 100.078 253.917 99.4067 253.757 98.6619L257.394 98.1726C257.505 98.4557 257.681 98.7204 257.921 98.9666C258.161 99.2128 258.478 99.4098 258.872 99.5575C259.272 99.7114 259.758 99.7884 260.33 99.7884C261.186 99.7884 261.891 99.5791 262.445 99.1605C263.005 98.7481 263.285 98.0556 263.285 97.0831V94.4886H263.119C262.946 94.8826 262.688 95.255 262.343 95.6058C261.999 95.9567 261.555 96.2429 261.014 96.4645C260.472 96.6861 259.826 96.7969 259.075 96.7969C258.01 96.7969 257.04 96.5507 256.166 96.0582C255.298 95.5597 254.606 94.7995 254.089 93.7777C253.578 92.7498 253.323 91.451 253.323 89.8814C253.323 88.2749 253.584 86.933 254.107 85.8558C254.631 84.7786 255.326 83.9723 256.194 83.4368C257.068 82.9013 258.025 82.6335 259.066 82.6335C259.86 82.6335 260.524 82.7689 261.06 83.0398C261.595 83.3045 262.026 83.6368 262.352 84.0369C262.685 84.4309 262.94 84.8187 263.119 85.2003H263.267V82.8182H267.172V97.1385C267.172 98.3449 266.877 99.3544 266.286 100.167C265.695 100.979 264.876 101.589 263.83 101.995C262.789 102.407 261.592 102.614 260.238 102.614ZM260.321 93.8423C260.955 93.8423 261.491 93.6854 261.928 93.3714C262.371 93.0514 262.709 92.5959 262.943 92.005C263.183 91.4079 263.303 90.6939 263.303 89.8629C263.303 89.032 263.186 88.3118 262.953 87.7024C262.719 87.0869 262.38 86.6098 261.937 86.2713C261.494 85.9328 260.955 85.7635 260.321 85.7635C259.675 85.7635 259.13 85.9389 258.687 86.2898C258.244 86.6345 257.908 87.1146 257.681 87.7301C257.453 88.3456 257.339 89.0566 257.339 89.8629C257.339 90.6816 257.453 91.3894 257.681 91.9865C257.914 92.5774 258.25 93.036 258.687 93.3622C259.13 93.6823 259.675 93.8423 260.321 93.8423ZM276.765 97.277C275.306 97.277 274.051 96.9815 272.998 96.3906C271.952 95.7936 271.145 94.9503 270.579 93.8608C270.013 92.7652 269.73 91.4695 269.73 89.9737C269.73 88.5149 270.013 87.2346 270.579 86.1328C271.145 85.031 271.942 84.1723 272.97 83.5568C274.004 82.9413 275.217 82.6335 276.608 82.6335C277.544 82.6335 278.415 82.7843 279.221 83.0859C280.034 83.3814 280.741 83.8277 281.345 84.4247C281.954 85.0218 282.428 85.7727 282.767 86.6776C283.105 87.5762 283.274 88.6288 283.274 89.8352V90.9155H271.299V88.478H279.572C279.572 87.9117 279.449 87.41 279.203 86.973C278.956 86.536 278.615 86.1944 278.178 85.9482C277.747 85.6958 277.245 85.5696 276.673 85.5696C276.076 85.5696 275.546 85.7081 275.085 85.9851C274.629 86.2559 274.272 86.6222 274.014 87.0838C273.755 87.5393 273.623 88.0471 273.617 88.6072V90.9247C273.617 91.6264 273.746 92.2327 274.004 92.7436C274.269 93.2545 274.642 93.6484 275.122 93.9254C275.602 94.2024 276.171 94.3409 276.83 94.3409C277.267 94.3409 277.667 94.2794 278.03 94.1562C278.393 94.0331 278.704 93.8485 278.963 93.6023C279.221 93.3561 279.418 93.0545 279.553 92.6974L283.191 92.9375C283.007 93.8116 282.628 94.5748 282.056 95.2273C281.489 95.8736 280.757 96.3783 279.858 96.7415C278.966 97.0985 277.935 97.277 276.765 97.277Z" fill="#25B39E"/>
<path d="M46.8579 89.142L51.1979 93.483C50.9139 93.652 50.6389 93.846 50.3929 94.092C50.0204 94.4628 49.7248 94.9036 49.5231 95.389C49.3214 95.8744 49.2175 96.3948 49.2175 96.9205C49.2175 97.4461 49.3214 97.9666 49.5231 98.452C49.7248 98.9374 50.0204 99.3781 50.3929 99.749C50.7637 100.121 51.2045 100.417 51.6899 100.619C52.1753 100.821 52.6958 100.924 53.2214 100.924C53.7471 100.924 54.2675 100.821 54.7529 100.619C55.2383 100.417 55.6791 100.121 56.0499 99.749C56.2959 99.503 56.4899 99.229 56.6599 98.944L60.9999 103.284L65.3399 98.944C65.0472 98.7755 64.777 98.5705 64.5359 98.334C64.1635 97.9632 63.8681 97.5225 63.6664 97.0372C63.4648 96.5519 63.361 96.0316 63.361 95.506C63.361 94.9805 63.4648 94.4601 63.6664 93.9748C63.8681 93.4895 64.1635 93.0489 64.5359 92.678C64.9067 92.3057 65.3474 92.0102 65.8327 91.8085C66.318 91.6069 66.8384 91.5031 67.3639 91.5031C67.8894 91.5031 68.4098 91.6069 68.8951 91.8085C69.3804 92.0102 69.8211 92.3057 70.1919 92.678C70.4284 92.9195 70.6334 93.1899 70.8019 93.483L75.1419 89.143L70.8019 84.8019C71.0859 84.6319 71.3609 84.438 71.6069 84.192C71.9793 83.8211 72.2748 83.3805 72.4764 82.8952C72.678 82.4099 72.7818 81.8895 72.7818 81.364C72.7818 80.8384 72.678 80.3181 72.4764 79.8328C72.2748 79.3475 71.9793 78.9068 71.6069 78.5359C71.2361 78.1634 70.7953 77.8679 70.3099 77.6662C69.8245 77.4645 69.304 77.3607 68.7784 77.3607C68.2528 77.3607 67.7323 77.4645 67.2469 77.6662C66.7615 77.8679 66.3207 78.1634 65.9499 78.5359C65.7039 78.7809 65.5099 79.056 65.3399 79.341L60.9999 75.001L56.6599 79.341C56.9449 79.51 57.2189 79.704 57.4639 79.95C57.8364 80.3208 58.132 80.7616 58.3338 81.247C58.5355 81.7324 58.6393 82.2529 58.6393 82.7785C58.6393 83.3041 58.5355 83.8246 58.3338 84.31C58.132 84.7954 57.8364 85.2362 57.4639 85.607C57.0931 85.9794 56.6524 86.2749 56.1671 86.4765C55.6818 86.6781 55.1614 86.7819 54.6359 86.7819C54.1104 86.7819 53.59 86.6781 53.1047 86.4765C52.6194 86.2749 52.1787 85.9794 51.8079 85.607C51.5714 85.3655 51.3664 85.095 51.1979 84.8019L46.8579 89.142V89.142Z" fill="url(#paint1_linear_444_11)"/>
<defs>
<linearGradient id="paint0_linear_444_11" x1="37" y1="168.5" x2="336" y2="-18.5" gradientUnits="userSpaceOnUse">
<stop/>
<stop offset="1" stop-color="#1F3D38"/>
</linearGradient>
<linearGradient id="paint1_linear_444_11" x1="64.4999" y1="87.5" x2="60.9999" y2="103.284" gradientUnits="userSpaceOnUse">
<stop stop-color="#25B39E"/>
<stop offset="1" stop-color="#118271"/>
</linearGradient>
</defs>
</svg>
