<svg width="185" height="185" viewBox="0 0 185 185" fill="none" xmlns="http://www.w3.org/2000/svg">
<rect width="185" height="185" rx="5" fill="white"/>
<g clip-path="url(#clip0_6_6)">
<path d="M153.004 66.2222C153.505 66.2222 153.869 66.6976 153.736 67.1791L139.346 119.389C139.256 119.717 138.956 119.945 138.614 119.945H122.956C122.647 119.945 122.369 119.759 122.252 119.473L114.074 99.3766C113.819 98.7512 112.933 98.7457 112.67 99.368L104.192 119.482C104.074 119.763 103.798 119.945 103.492 119.945H87.6777C87.4112 119.945 87.1645 119.806 87.0271 119.578L73.1333 96.5533C72.8291 96.0489 73.1935 95.4069 73.7839 95.4069H86.9213C87.1301 95.4069 87.3297 95.4926 87.473 95.6437L94.9436 103.522C95.3401 103.94 96.0411 103.782 96.218 103.234L105.769 73.6645C105.87 73.3518 106.162 73.1398 106.492 73.1398H120.59C120.923 73.1398 121.217 73.356 121.315 73.673L130.002 101.688C130.233 102.432 131.306 102.385 131.47 101.623L138.983 66.8197C139.059 66.4711 139.368 66.2222 139.726 66.2222H153.004Z" fill="#24335A"/>
<path d="M30 92.0406C30 86.4163 31.2137 81.414 33.641 77.0336C36.0683 72.5991 39.4396 69.165 43.7548 66.7315C48.124 64.2438 53.0595 63 58.5615 63C65.3041 63 71.0756 64.7846 75.8765 68.3539C80.4293 71.7388 83.5508 76.2911 85.2415 82.0107C85.3819 82.4861 85.0188 82.9553 84.5215 82.9553H70.7737C70.4804 82.9553 70.215 82.7861 70.0808 82.5263C68.9616 80.3569 67.4143 78.6882 65.4389 77.5203C63.3892 76.2765 61.0428 75.6545 58.3998 75.6545C54.1384 75.6545 50.6862 77.1417 48.0431 80.1161C45.4 83.0904 44.0785 87.0653 44.0785 92.0406C44.0785 97.0157 45.4 100.991 48.0431 103.965C50.6862 106.939 54.1384 108.427 58.3998 108.427C60.8325 108.427 63.0139 107.9 64.9437 106.846C65.2408 106.684 65.6105 106.718 65.8595 106.947L70.4554 111.164L75.1406 115.108C75.5158 115.424 75.4961 116.006 75.0899 116.282C70.4493 119.427 64.9399 121 58.5615 121C53.0595 121 48.124 119.783 43.7548 117.35C39.4396 114.862 36.0683 111.428 33.641 107.047C31.2137 102.667 30 97.6648 30 92.0406Z" fill="#24335A"/>
</g>
<defs>
<clipPath id="clip0_6_6">
<rect width="124" height="58" fill="white" transform="translate(30 63)"/>
</clipPath>
</defs>
</svg>
