<svg width="47" height="47" viewBox="0 0 47 47" fill="none" xmlns="http://www.w3.org/2000/svg">
<path d="M44.3889 0H2.61111C1.16903 0 0 1.16903 0 2.61111V44.3889C0 45.831 1.16903 47 2.61111 47H44.3889C45.831 47 47 45.831 47 44.3889V2.61111C47 1.16903 45.831 0 44.3889 0Z" fill="#117EB8"/>
<path fill-rule="evenodd" clip-rule="evenodd" d="M8.57684 18.1785H14.8585V38.3898H8.57684V18.1785V18.1785ZM11.7187 8.13163C13.7273 8.13163 15.3592 9.76358 15.3592 11.7722C15.3592 13.7827 13.7273 15.4153 11.7187 15.4153C11.2346 15.4245 10.7536 15.3371 10.3037 15.1582C9.85382 14.9793 9.44413 14.7125 9.09856 14.3734C8.753 14.0343 8.47849 13.6297 8.29111 13.1833C8.10372 12.7369 8.0072 12.2576 8.0072 11.7735C8.0072 11.2893 8.10372 10.8101 8.29111 10.3636C8.47849 9.91724 8.753 9.51266 9.09856 9.17358C9.44413 8.83449 9.85382 8.5677 10.3037 8.3888C10.7536 8.20989 11.2346 8.12247 11.7187 8.13163V8.13163ZM18.7987 18.1779H24.8238V20.9398H24.9074C25.7462 19.3509 27.7953 17.6759 30.8509 17.6759C37.2116 17.6759 38.3866 21.8622 38.3866 27.3044V38.3898H32.1088V28.561C32.1088 26.2175 32.0657 23.2023 28.8449 23.2023C25.5765 23.2023 25.0745 25.7553 25.0745 28.3919V38.3898H18.798V18.1785L18.7987 18.1779Z" fill="white"/>
</svg>
