<svg width="55" height="38" viewBox="0 0 55 38" fill="none" xmlns="http://www.w3.org/2000/svg">
<path d="M36.0415 18.4465C31.0806 15.7954 26.3304 13.3581 21.4749 10.8134V26.0365C26.5844 23.2589 31.97 20.7152 36.0626 18.4465H36.0415V18.4465Z" fill="white"/>
<path d="M36.0415 18.4465C31.0806 15.7954 21.4749 10.8134 21.4749 10.8134L34.2818 19.4212C34.2828 19.4212 31.9489 20.7152 36.0415 18.4465Z" fill="#E8E0E0"/>
<path d="M22.4084 37.9529C12.1041 37.7632 8.58467 37.5925 6.42141 37.1468C4.95782 36.8507 3.68596 36.1932 2.7534 35.2396C2.03265 34.5178 1.45946 33.4166 1.01476 31.8888C0.633308 30.6159 0.48474 29.5568 0.272932 26.97C-0.0513064 21.1317 -0.128602 16.3585 0.272932 11.0251C0.604196 8.07985 0.764809 4.5835 2.96521 2.54371C4.00418 1.58907 5.21279 0.974722 6.56997 0.720752C8.69007 0.318215 17.7226 0 27.0733 0C36.4029 0 45.4554 0.318215 47.5775 0.720752C49.273 1.03897 50.8631 1.99261 51.7967 3.2223C53.8043 6.38036 53.8395 10.3074 54.0432 13.3791C54.1276 14.8427 54.1276 23.1534 54.0432 24.617C53.726 29.4715 53.471 31.1891 52.7503 32.9699C52.3046 34.0942 51.9241 34.6874 51.2656 35.3449C50.2328 36.3568 48.9162 37.0298 47.4912 37.2743C38.5742 37.9449 31.0023 38.0904 22.4084 37.9529V37.9529ZM36.0636 18.4464C31.1026 15.7953 26.3525 13.3369 21.497 10.7922V26.0163C26.6065 23.2387 31.993 20.694 36.0847 18.4253L36.0636 18.4464Z" fill="#CD201F"/>
</svg>
